<?xml version="1.0" encoding="UTF-8" standalone="no"?>
<svg
   version="1.0"
   width="1024.000000pt"
   height="1024.000000pt"
   viewBox="0 0 1024.000000 1024.000000"
   preserveAspectRatio="xMidYMid meet"
   id="svg10"
   sodipodi:docname="text-x-oxtstack-1024.svg"
   inkscape:version="1.1.2 (0a00cf5339, 2022-02-04)"
   xmlns:inkscape="http://www.inkscape.org/namespaces/inkscape"
   xmlns:sodipodi="http://sodipodi.sourceforge.net/DTD/sodipodi-0.dtd"
   xmlns="http://www.w3.org/2000/svg"
   xmlns:svg="http://www.w3.org/2000/svg">
  <defs
     id="defs14" />
  <sodipodi:namedview
     id="namedview12"
     pagecolor="#ffffff"
     bordercolor="#666666"
     borderopacity="1.0"
     inkscape:pageshadow="2"
     inkscape:pageopacity="0.0"
     inkscape:pagecheckerboard="0"
     inkscape:document-units="pt"
     showgrid="false"
     inkscape:zoom="0.15728356"
     inkscape:cx="232.06495"
     inkscape:cy="1341.5261"
     inkscape:window-width="1280"
     inkscape:window-height="684"
     inkscape:window-x="0"
     inkscape:window-y="0"
     inkscape:window-maximized="1"
     inkscape:current-layer="layer1" />
  <g
     inkscape:groupmode="layer"
     id="layer1"
     inkscape:label="Layer 1"
     style="display:inline">
    <path
       style="fill:#e6e6e6;stroke:#000000;stroke-width:10;stroke-linecap:butt;stroke-linejoin:round;stroke-miterlimit:4;stroke-dasharray:none;stroke-opacity:1"
       d="M 859.0488,260.71295 617,45.53318 H 167.77693 V 948.7836 H 859.0488 V 260.71295"
       id="path2906" />
    <g
       transform="matrix(0.1,0,0,-0.1,0,1045)"
       fill="#000000"
       stroke="none"
       id="g8">
      <path
         d="m 5414,8271 c -94,-29 -123,-42 -329,-150 -66,-35 -166,-88 -222,-117 -57,-30 -149,-78 -205,-108 -57,-29 -161,-84 -233,-121 -71,-37 -213,-111 -315,-165 -102,-54 -243,-128 -315,-165 -188,-98 -327,-171 -430,-225 -137,-72 -366,-192 -400,-209 -78,-38 -692,-385 -708,-399 -39,-34 -77,-105 -77,-143 0,-41 17,-63 78,-100 31,-20 42,-39 22,-39 -5,0 -30,-26 -55,-57 -37,-48 -45,-65 -45,-99 0,-38 5,-46 48,-82 l 47,-40 -26,-29 c -39,-42 -67,-86 -69,-108 -6,-57 6,-78 75,-129 18,-13 17,-16 -17,-57 -47,-59 -58,-81 -58,-121 0,-39 10,-53 65,-93 22,-16 42,-30 44,-32 2,-1 -7,-12 -22,-23 -44,-35 -87,-110 -87,-152 0,-38 4,-44 69,-96 l 25,-19 -36,-44 c -47,-59 -58,-81 -58,-121 0,-39 11,-55 57,-87 l 32,-22 -44,-55 c -34,-42 -45,-63 -45,-90 0,-47 11,-65 59,-98 l 40,-28 -50,-61 c -42,-52 -49,-67 -49,-104 0,-40 4,-46 53,-84 28,-22 115,-73 192,-113 77,-40 226,-117 330,-171 184,-95 235,-121 585,-302 91,-47 219,-114 285,-148 66,-34 192,-99 280,-145 89,-46 169,-94 180,-108 11,-14 104,-152 207,-306 103,-155 191,-285 195,-291 30,-38 113,-174 113,-184 0,-13 -34,-69 -337,-562 -140,-228 -163,-272 -163,-306 0,-47 25,-84 68,-102 20,-8 114,-11 324,-9 l 296,3 26,24 c 15,14 77,109 138,212 62,104 115,186 118,183 3,-3 57,-91 120,-196 92,-154 122,-195 150,-209 31,-17 62,-19 318,-19 238,0 289,3 317,16 41,19 70,74 61,116 -3,16 -118,212 -256,434 -143,232 -248,410 -244,417 36,61 411,649 486,762 49,73 58,125 29,172 -13,21 -33,36 -58,43 -21,6 -155,14 -298,18 l -260,7 75,45 c 41,25 96,58 123,75 26,16 66,42 90,56 64,39 317,195 390,240 23,14 114,70 202,124 88,54 178,110 201,124 23,14 126,78 229,141 103,63 213,131 244,151 61,38 334,208 363,224 105,61 287,176 314,198 44,37 74,95 74,144 0,23 -12,59 -30,92 -26,47 -28,56 -16,70 51,58 58,128 21,200 l -24,49 24,51 c 32,66 31,99 -5,173 -26,53 -29,63 -16,77 26,30 46,80 46,116 0,35 -40,127 -61,140 -7,5 -4,14 9,29 26,28 52,91 52,128 0,16 -13,56 -29,88 -18,36 -26,62 -20,66 12,7 59,111 59,129 0,7 -16,43 -34,81 -30,58 -33,71 -22,84 26,29 46,79 46,115 0,35 -40,127 -61,140 -7,5 -4,14 9,29 28,29 52,92 52,133 0,45 -42,126 -82,157 -18,13 -53,33 -78,44 -25,11 -130,61 -235,112 -221,107 -437,212 -583,282 -101,48 -105,49 -185,46 l -82,-3 45,-21 c 25,-12 119,-58 210,-101 91,-44 208,-101 260,-126 52,-25 176,-84 275,-132 99,-48 216,-104 260,-125 75,-34 82,-40 104,-88 l 24,-52 -19,-36 c -21,-41 -12,-34 -299,-211 -115,-71 -318,-196 -450,-278 -132,-81 -328,-202 -435,-268 -107,-66 -222,-136 -255,-157 -184,-114 -411,-254 -490,-302 -49,-30 -234,-144 -410,-253 -176,-109 -375,-231 -441,-272 l -122,-73 h -90 c -117,0 -244,33 -355,93 -45,24 -176,93 -292,152 -115,59 -241,124 -280,145 -38,21 -146,77 -240,125 -93,48 -228,118 -300,155 -71,37 -202,105 -290,150 -88,46 -205,106 -260,135 -55,29 -138,71 -185,95 -105,53 -210,119 -210,132 0,5 12,27 28,48 22,32 86,72 377,233 193,107 400,221 460,252 61,32 156,82 213,111 126,66 282,148 427,224 205,107 330,172 420,220 146,77 390,204 680,355 72,37 162,85 200,105 171,92 328,170 342,170 9,0 40,8 70,17 51,16 57,16 126,-2 39,-10 110,-38 157,-61 123,-61 381,-184 386,-184 2,0 4,18 4,40 v 39 l -127,62 c -271,131 -331,157 -394,174 -95,26 -106,26 -205,-4 z M 7646,6899 c 26,-51 26,-52 8,-91 -15,-35 -40,-53 -213,-160 -108,-66 -212,-131 -231,-143 -19,-12 -107,-66 -195,-120 -88,-54 -176,-108 -195,-120 -19,-12 -107,-66 -195,-120 -88,-54 -176,-108 -195,-120 -19,-12 -125,-78 -235,-145 -110,-68 -216,-133 -235,-145 -19,-13 -143,-89 -275,-170 -324,-200 -599,-369 -781,-482 l -150,-93 h -92 c -152,0 -228,27 -557,200 -49,26 -166,87 -260,135 -93,48 -224,116 -290,150 -66,34 -187,97 -270,140 -82,43 -208,108 -280,145 -122,63 -238,123 -535,277 -131,68 -219,123 -220,136 0,19 56,88 87,107 l 35,20 216,-111 c 120,-62 262,-135 317,-164 55,-29 168,-87 250,-130 83,-43 200,-103 260,-135 212,-111 699,-362 855,-441 149,-76 270,-109 394,-109 81,0 99,3 145,28 46,23 338,201 441,267 61,40 334,208 360,222 14,8 151,92 305,188 327,202 335,208 525,324 80,50 170,105 200,124 30,19 145,89 255,157 110,67 216,133 235,145 19,12 107,66 195,120 88,54 176,108 195,120 52,33 74,44 87,45 7,0 24,-23 39,-51 z m 4,-289 c 23,-50 23,-50 4,-86 -21,-41 -12,-34 -299,-211 -115,-71 -318,-196 -450,-278 -132,-81 -330,-203 -440,-271 -110,-67 -225,-138 -255,-157 -97,-60 -438,-270 -685,-422 -132,-82 -332,-205 -445,-275 -357,-221 -314,-200 -419,-200 -118,0 -243,34 -366,99 -49,27 -166,88 -260,136 -93,48 -224,116 -290,150 -180,94 -372,193 -550,285 -153,79 -297,154 -540,280 -60,31 -148,76 -195,100 -105,53 -210,119 -210,132 0,18 55,86 82,102 26,16 30,15 110,-27 46,-24 160,-83 253,-132 94,-48 235,-121 315,-163 175,-90 376,-194 525,-272 61,-32 187,-97 280,-145 94,-48 229,-118 300,-155 72,-38 156,-82 189,-98 32,-17 108,-45 169,-62 96,-28 122,-31 206,-28 l 96,3 100,62 c 55,34 134,83 175,107 41,25 128,78 192,118 64,40 184,114 265,164 560,345 843,519 873,538 33,22 166,104 625,386 110,67 214,131 230,142 169,106 372,228 381,228 6,0 21,-22 34,-50 z m 0,-280 c 23,-48 23,-51 6,-87 -13,-29 -34,-48 -89,-81 -40,-24 -139,-85 -222,-136 -232,-144 -1085,-670 -1230,-759 -71,-44 -204,-126 -295,-182 -91,-56 -255,-157 -365,-225 -110,-67 -216,-133 -235,-145 -77,-49 -426,-263 -447,-274 -36,-19 -195,-13 -286,10 -79,20 -118,39 -542,259 -60,31 -204,106 -320,165 -115,59 -232,120 -260,135 -27,15 -135,71 -240,125 -104,54 -235,121 -290,150 -55,29 -190,99 -300,155 -212,109 -285,155 -285,177 0,8 23,37 50,64 l 50,50 168,-87 c 92,-48 237,-123 322,-167 85,-44 205,-106 265,-137 61,-32 178,-92 260,-135 143,-74 298,-154 560,-290 350,-182 477,-245 492,-245 10,0 47,-9 81,-20 83,-26 247,-28 295,-4 26,13 172,102 322,196 17,10 125,76 240,147 116,72 235,145 265,164 30,18 116,71 190,117 74,46 160,99 190,117 30,19 150,92 265,164 116,71 224,137 240,148 17,10 127,78 245,151 329,203 551,339 710,438 80,50 150,91 156,91 6,1 21,-21 34,-49 z m -3,-295 27,-54 -20,-37 c -22,-41 -13,-35 -304,-214 -118,-73 -312,-192 -430,-265 -118,-73 -312,-192 -430,-265 -230,-142 -570,-352 -660,-407 -30,-19 -149,-92 -265,-164 -115,-71 -223,-137 -240,-148 -67,-42 -454,-280 -511,-314 -59,-35 -65,-37 -153,-37 -115,0 -232,31 -351,93 -47,24 -161,83 -255,132 -246,127 -423,219 -560,290 -66,34 -196,102 -290,150 -161,83 -301,155 -550,285 -60,31 -148,76 -195,100 -105,53 -210,119 -210,132 0,20 56,88 89,106 l 34,20 146,-75 c 80,-42 205,-106 276,-143 72,-37 207,-107 300,-155 94,-48 215,-111 270,-140 55,-29 172,-90 260,-135 88,-45 210,-108 270,-140 435,-226 482,-249 578,-274 120,-32 268,-36 320,-10 29,15 292,174 377,229 19,12 125,78 235,145 110,68 216,133 235,145 19,12 107,66 195,120 88,54 176,108 195,120 19,12 107,66 195,120 88,54 176,108 195,120 19,12 125,78 235,145 110,68 223,137 250,155 28,17 115,71 195,120 80,48 156,95 170,104 181,114 327,201 338,201 7,0 24,-25 39,-55 z m 3,-285 c 23,-48 23,-51 6,-87 -13,-29 -34,-48 -89,-81 -40,-24 -146,-89 -237,-146 -91,-56 -325,-200 -520,-320 -195,-121 -429,-265 -520,-321 -301,-186 -642,-396 -840,-518 -107,-66 -211,-130 -230,-142 -19,-12 -107,-66 -195,-120 -88,-53 -171,-105 -185,-115 -62,-43 -88,-50 -180,-50 -137,0 -227,27 -410,122 -85,44 -220,114 -300,156 -154,79 -340,175 -560,289 -74,39 -202,105 -285,148 -82,43 -195,101 -250,130 -55,29 -194,101 -310,160 -207,107 -295,160 -295,178 0,35 102,126 123,110 6,-6 107,-59 222,-118 199,-102 288,-148 578,-299 67,-35 194,-101 282,-146 88,-45 214,-111 280,-145 66,-34 197,-102 290,-150 94,-49 208,-108 255,-132 47,-24 134,-58 194,-75 94,-26 122,-29 206,-26 110,3 57,-22 435,211 310,191 593,366 650,400 28,17 73,45 100,62 44,28 227,141 380,235 61,37 320,196 395,243 30,18 145,89 255,157 110,68 216,133 235,145 19,12 107,66 195,120 172,105 216,133 255,158 38,24 45,21 70,-33 z m 4,-276 c 17,-40 17,-43 -1,-79 -21,-40 -9,-32 -380,-259 -98,-59 -194,-118 -213,-131 -36,-23 -299,-186 -770,-475 -381,-234 -600,-369 -640,-395 -19,-12 -123,-76 -230,-142 -107,-66 -284,-175 -392,-242 l -198,-122 -214,-1 h -214 l -178,92 c -268,139 -437,226 -559,290 -60,32 -191,99 -290,150 -99,51 -220,114 -270,140 -91,48 -262,136 -585,303 -187,96 -269,146 -270,163 0,18 60,93 80,99 13,4 75,-23 187,-81 92,-48 222,-115 288,-149 66,-34 201,-104 300,-155 99,-51 225,-116 280,-145 95,-50 236,-123 535,-278 74,-38 207,-107 295,-152 196,-102 307,-135 451,-135 68,0 104,5 127,16 27,14 269,161 377,229 19,12 125,78 235,145 110,68 216,133 235,145 19,12 107,66 195,120 88,54 176,108 195,120 19,12 107,66 195,120 158,97 199,122 273,169 20,13 109,67 197,121 88,54 183,113 210,130 28,17 115,71 195,120 80,49 165,101 190,117 244,152 336,206 341,200 3,-4 13,-26 23,-48 z m -5,-271 c 22,-45 22,-47 5,-85 -15,-34 -39,-52 -173,-135 -86,-53 -174,-107 -196,-121 -81,-52 -113,-72 -270,-167 -88,-54 -176,-108 -195,-120 -19,-12 -107,-66 -195,-120 -88,-54 -176,-108 -195,-120 -19,-12 -125,-78 -235,-145 -110,-68 -216,-133 -235,-145 -19,-12 -107,-66 -195,-120 -88,-54 -176,-108 -195,-120 -32,-20 -435,-269 -569,-351 l -55,-34 -32,60 c -18,33 -34,66 -37,73 -3,9 49,47 147,106 83,52 167,104 186,116 19,12 107,66 195,120 88,54 176,108 195,120 19,12 107,66 195,120 159,98 201,124 273,169 20,13 109,67 197,121 88,54 176,108 195,120 19,12 107,66 195,120 88,54 176,108 195,120 19,12 107,67 195,121 88,54 187,115 220,135 242,153 332,207 346,208 9,1 24,-18 38,-46 z M 2518,4519 c 86,-45 218,-113 292,-152 343,-178 403,-209 530,-274 74,-39 207,-108 295,-153 88,-46 205,-106 260,-135 55,-29 150,-77 210,-108 61,-31 119,-63 130,-71 19,-14 15,-15 -47,-16 -57,0 -71,-4 -97,-26 -17,-14 -31,-32 -31,-40 0,-8 -3,-14 -6,-14 -5,0 -175,87 -489,250 -60,31 -182,94 -270,140 -88,45 -209,108 -270,140 -60,32 -186,97 -280,145 -350,180 -401,208 -447,239 -26,17 -48,34 -48,39 -1,27 79,113 108,117 2,0 74,-37 160,-81 z M 5217,3493 c -6,-11 -110,-230 -128,-270 -7,-18 -16,-33 -19,-33 -6,0 -92,162 -88,165 2,1 46,28 98,60 52,32 104,64 115,71 24,15 28,17 22,7 z"
         id="path2" />
      <path
         d="m 6301,3587 c -48,-24 -61,-56 -71,-172 -36,-383 -36,-376 11,-421 l 30,-29 202,-6 c 111,-4 220,-8 241,-8 l 39,-1 -6,-47 c -3,-27 -11,-84 -17,-128 -6,-44 -17,-136 -26,-205 -8,-69 -19,-163 -25,-210 -14,-122 -38,-356 -49,-494 -8,-101 -7,-124 6,-152 29,-60 51,-64 348,-64 h 265 l 35,31 c 26,23 36,40 40,72 3,23 10,83 16,132 11,89 15,117 45,325 19,129 74,469 94,580 23,131 19,123 65,116 61,-9 321,-26 403,-26 116,0 133,22 177,235 9,44 21,96 26,115 44,173 15,211 -180,235 -69,8 -163,20 -210,25 -47,6 -137,15 -200,21 -63,5 -160,14 -215,20 -210,20 -892,67 -1000,68 -11,1 -31,-5 -44,-12 z"
         id="path4" />
      <path
         d="m 2843,3559 c -158,-17 -370,-87 -486,-161 -169,-108 -277,-245 -333,-423 -15,-48 -19,-91 -19,-220 0,-167 6,-206 60,-370 107,-328 356,-593 655,-698 151,-52 218,-62 445,-61 195,0 217,2 307,27 290,79 482,264 559,542 27,98 38,377 20,490 -54,322 -174,542 -379,693 -216,159 -482,217 -829,181 z m 263,-625 c 127,-43 186,-137 220,-346 33,-207 -1,-331 -101,-372 -75,-31 -188,-25 -265,14 -43,22 -101,82 -129,133 -59,107 -100,364 -72,450 24,72 69,109 166,133 58,15 112,12 181,-12 z"
         id="path6" />
    </g>
    <path
       style="fill:none;stroke:#000000;stroke-width:10;stroke-linecap:round;stroke-linejoin:miter;stroke-miterlimit:4;stroke-dasharray:none;stroke-opacity:1"
       d="m 617,45.53318 -3.07208,220.59643"
       id="path3615" />
    <path
       style="fill:none;stroke:#000000;stroke-width:10;stroke-linecap:round;stroke-linejoin:round;stroke-miterlimit:4;stroke-dasharray:none;stroke-opacity:1"
       d="m 613.92792,266.12961 c 0,0 80.91988,-26.57738 163.02041,-15.99702 82.10047,10.58036 82.10047,10.58036 82.10047,10.58036 v 0"
       id="path4117" />
  </g>
  <g
     inkscape:groupmode="layer"
     id="layer2"
     inkscape:label="Layer 2"
     style="display:inline">
    <path
       d="m 630.1,686.3 c -4.8,2.4 -6.1,5.6 -7.1,17.2 -3.6,38.3 -3.6,37.6 1.1,42.1 l 3,2.9 20.2,0.6 c 11.1,0.4 22,0.8 24.1,0.8 l 3.9,0.1 -0.6,4.7 c -0.3,2.7 -1.1,8.4 -1.7,12.8 -0.6,4.4 -1.7,13.6 -2.6,20.5 -0.8,6.9 -1.9,16.3 -2.5,21 -1.4,12.2 -3.8,35.6 -4.9,49.4 -0.8,10.1 -0.7,12.4 0.6,15.2 2.9,6 5.1,6.4 34.8,6.4 h 26.5 l 3.5,-3.1 c 2.6,-2.3 3.6,-4 4,-7.2 0.3,-2.3 1,-8.3 1.6,-13.2 1.1,-8.9 1.5,-11.7 4.5,-32.5 1.9,-12.9 7.4,-46.9 9.4,-58 2.3,-13.1 1.9,-12.3 6.5,-11.6 6.1,0.9 32.1,2.6 40.3,2.6 11.6,0 13.3,-2.2 17.7,-23.5 0.9,-4.4 2.1,-9.6 2.6,-11.5 4.4,-17.3 1.5,-21.1 -18,-23.5 -6.9,-0.8 -16.3,-2 -21,-2.5 -4.7,-0.6 -13.7,-1.5 -20,-2.1 -6.3,-0.5 -16,-1.4 -21.5,-2 -21,-2 -89.2,-6.7 -100,-6.8 -1.1,-0.1 -3.1,0.5 -4.4,1.2 z"
       id="path4-0"
       style="fill:#ff00ff;stroke:#000000;stroke-width:10;stroke-linecap:round;stroke-linejoin:round;stroke-miterlimit:4;stroke-dasharray:none;stroke-opacity:1" />
    <path
       d="m 284.3,689.1 c -15.8,1.7 -37,8.7 -48.6,16.1 -16.9,10.8 -27.7,24.5 -33.3,42.3 -1.5,4.8 -1.9,9.1 -1.9,22 0,16.7 0.6,20.6 6,37 10.7,32.8 35.6,59.3 65.5,69.8 15.1,5.2 21.8,6.2 44.5,6.1 19.5,0 21.7,-0.2 30.7,-2.7 29,-7.9 48.2,-26.4 55.9,-54.2 2.7,-9.8 3.8,-37.7 2,-49 -5.4,-32.2 -17.4,-54.2 -37.9,-69.3 -21.6,-15.9 -48.2,-21.7 -82.9,-18.1 z m 26.3,62.5 c 12.7,4.3 18.6,13.7 22,34.6 3.3,20.7 -0.1,33.1 -10.1,37.2 -7.5,3.1 -18.8,2.5 -26.5,-1.4 -4.3,-2.2 -10.1,-8.2 -12.9,-13.3 -5.9,-10.7 -10,-36.4 -7.2,-45 2.4,-7.2 6.9,-10.9 16.6,-13.3 5.8,-1.5 11.2,-1.2 18.1,1.2 z"
       id="path6-5"
       style="fill:#ff00ff;stroke:#000000;stroke-width:10;stroke-linecap:round;stroke-linejoin:round;stroke-miterlimit:4;stroke-dasharray:none;stroke-opacity:1" />
    <path
       id="path2-4"
       style="stroke-width:10;fill:#ff00ff;fill-opacity:1;stroke:#000000;stroke-opacity:1;stroke-miterlimit:4;stroke-dasharray:none;stroke-linejoin:round;paint-order:normal;stroke-linecap:round"
       d="m 478.93946,678.44971 c -17.53647,0.15059 -35.45323,-0.0806 -52.63038,3.44676 -4.6501,1.26375 -16.03051,3.58633 -17.54612,6.61244 -11.07201,4.10897 -0.11714,15.67425 4.05388,21.52805 14.78665,22.20862 29.99395,44.15576 44.39911,66.60386 6.8559,8.41463 -5.52791,16.56308 -8.25025,24.50978 -12.51504,21.26227 -26.58576,41.66055 -38.00554,63.53873 -4.931,11.44822 8.86195,17.1474 18.10751,15.10709 16.57781,0.17888 33.15517,-0.17699 49.7324,-0.29669 9.01364,-8.64211 13.88908,-20.65388 20.81747,-30.88898 3.33855,-5.09182 7.70243,-16.01647 11.13223,-5.03513 7.48866,11.18543 12.9511,23.95988 22.17892,33.85681 9.4035,4.37684 20.45837,1.72274 30.5366,2.5677 11.31096,-0.47086 22.95493,1.01947 34.034,-1.6005 12.25759,-6.60083 2.30808,-19.07303 -2.52605,-27.08078 -13.50882,-23.36062 -28.99182,-45.64913 -41.37386,-69.61792 16.8123,-27.32775 34.68936,-54.0215 51.52877,-81.30747 7.34477,-13.88306 -9.75767,-19.35207 -20.46873,-17.60633 -13.71156,-0.66792 -27.43959,-0.87666 -41.16013,-1.28739 -11.79059,14.27924 -25.08283,27.81875 -35.71875,42.76172 9.12844,14.17033 -34.30938,-58.04211 -25.7033,-43.54859 -0.42969,-0.40194 -0.83216,-2.6607 -3.13778,-2.26317 z m 3.13769,2.26318 c 0.10309,0.14216 -0.0994,-0.25548 0,0 z m 0.0307,0.0425 c 0.0286,0.14058 0.337,0.36226 0,0 z m 61.3916,0.74415 c -1.74757,-0.15133 -0.57971,0.0684 0,0 z m -62.30274,-2.26319 c 0.0349,0.0885 0.0236,-0.004 0,0 z m -54.64453,2.37451 -0.29297,0.0484 z"
       sodipodi:nodetypes="sccccccccccccccccccccssccccccccccc" />
  </g>
</svg>
